<?xml version="1.0" encoding="UTF-8"?>
<svg width="512" height="512" viewBox="0 0 512 512" version="1.1" xmlns="http://www.w3.org/2000/svg">
  <defs>
    <clipPath id="roundedCorners">
      <rect x="0" y="0" width="512" height="512" rx="128" ry="128"/>
    </clipPath>
  </defs>
  <g clip-path="url(#roundedCorners)">
    <rect width="512" height="512" fill="#1a1a2e"/>
    <!-- Connection lines -->
    <g stroke="#4a9eff" stroke-width="2.5" opacity="0.5" transform="translate(-1.92,-28.8)">
      <line x1="120" y1="140" x2="256" y2="180"/>
      <line x1="256" y1="180" x2="390" y2="160"/>
      <line x1="256" y1="180" x2="340" y2="340"/>
      <line x1="256" y1="180" x2="180" y2="320"/>
      <line x1="390" y1="160" x2="420" y2="280"/>
      <line x1="390" y1="160" x2="340" y2="340"/>
      <line x1="180" y1="320" x2="140" y2="420"/>
      <line x1="180" y1="320" x2="280" y2="400"/>
      <line x1="340" y1="340" x2="280" y2="400"/>
      <line x1="340" y1="340" x2="420" y2="280"/>
      <line x1="340" y1="340" x2="380" y2="440"/>
      <line x1="420" y1="280" x2="380" y2="440"/>
      <line x1="280" y1="400" x2="380" y2="440"/>
      <line x1="60" y1="280" x2="120" y2="140"/>
      <line x1="60" y1="280" x2="180" y2="320"/>
    </g>
    <!-- Nodes -->
    <g transform="translate(0.64,-32)">
      <circle cx="118.08" cy="146.4" r="20" fill="#4a9eff" stroke="#6db8ff" stroke-width="2.5"/>
      <circle cx="256" cy="180" r="24" fill="#4a9eff" stroke="#6db8ff" stroke-width="3"/>
      <circle cx="390" cy="160" r="22" fill="#4a9eff" stroke="#6db8ff" stroke-width="2.5"/>
      <circle cx="60" cy="280" r="16" fill="#4a9eff" stroke="#6db8ff" stroke-width="2"/>
      <circle cx="180" cy="320" r="20" fill="#4a9eff" stroke="#6db8ff" stroke-width="2.5"/>
      <circle cx="340" cy="340" r="22" fill="#4a9eff" stroke="#6db8ff" stroke-width="2.5"/>
      <circle cx="420" cy="280" r="18" fill="#4a9eff" stroke="#6db8ff" stroke-width="2"/>
      <circle cx="140" cy="420" r="16" fill="#4a9eff" stroke="#6db8ff" stroke-width="2"/>
      <circle cx="280" cy="400" r="18" fill="#4a9eff" stroke="#6db8ff" stroke-width="2"/>
      <circle cx="380" cy="440" r="20" fill="#4a9eff" stroke="#6db8ff" stroke-width="2.5"/>
      <!-- Glow effect on central node -->
      <circle cx="256" cy="180" r="24" fill="none" stroke="#4a9eff" stroke-width="1" opacity="0.3">
        <animate attributeName="r" values="24;34;24" dur="2s" repeatCount="indefinite"/>
        <animate attributeName="opacity" values="0.3;0;0.3" dur="2s" repeatCount="indefinite"/>
      </circle>
    </g>
  </g>
</svg>
